# xmcd
#
# Track frame offsets:
#	150
#	24112
#	56872
#	74057
#	94852
#	117855
#	161725
#	178443
#	199643
#	217990
#	245885
#	265660
#	284275
#	304735
#	327195
#
# Disc length: 4661 seconds
#
# Revision: 0
# Processed by: cddbd v1.5.1PL0 Copyright (c) Steve Scherf et al.
# Submitted via: EasyCDDAExtractor 7.1.2.1
#
DISCID=e312330f
DTITLE=The Best of T - Connection - At Midnight
DYEAR=1900
DGENRE=Disco
TTITLE0=Do What You Wanna Do 
TTITLE1=Disco Magic 
TTITLE2=Go Back Home 
TTITLE3=Got To See My Lady 
TTITLE4=Peace Line 
TTITLE5=At Midnight 
TTITLE6=On Fire 
TTITLE7=Ecstasy 
TTITLE8=Let's Do It Today 
TTITLE9=Choosing 
TTITLE10=That's Love 
TTITLE11=Born To Boogie 
TTITLE12=Midnight Train 
TTITLE13=Love Supreme 
TTITLE14=Funkanection
EXTD=
EXTT0=
EXTT1=
EXTT2=
EXTT3=
EXTT4=
EXTT5=
EXTT6=
EXTT7=
EXTT8=
EXTT9=
EXTT10=
EXTT11=
EXTT12=
EXTT13=
EXTT14=
PLAYORDER=
